<mxfile host="app.diagrams.net" agent="Mozilla/5.0 (Windows NT 10.0; Win64; x64) AppleWebKit/537.36 (KHTML, like Gecko) Chrome/140.0.0.0 Safari/537.36" version="28.2.5">
  <diagram name="Página-1" id="ZuBOBz5zoSPugGbZbxMv">
    <mxGraphModel dx="2310" dy="879" grid="1" gridSize="10" guides="1" tooltips="1" connect="1" arrows="1" fold="1" page="1" pageScale="1" pageWidth="827" pageHeight="1169" math="0" shadow="0">
      <root>
        <mxCell id="0" />
        <mxCell id="1" parent="0" />
        <mxCell id="2kuMkGwONnxZ9jZL0DD0-1" value="CLUBE" style="rounded=0;whiteSpace=wrap;html=1;" vertex="1" parent="1">
          <mxGeometry x="-690" y="90" width="120" height="60" as="geometry" />
        </mxCell>
        <mxCell id="2kuMkGwONnxZ9jZL0DD0-2" value="Capitao" style="ellipse;whiteSpace=wrap;html=1;align=center;" vertex="1" parent="1">
          <mxGeometry x="-680" y="30" width="100" height="40" as="geometry" />
        </mxCell>
        <mxCell id="2kuMkGwONnxZ9jZL0DD0-3" value="Hino" style="ellipse;whiteSpace=wrap;html=1;align=center;" vertex="1" parent="1">
          <mxGeometry x="-560" y="30" width="100" height="40" as="geometry" />
        </mxCell>
        <mxCell id="2kuMkGwONnxZ9jZL0DD0-4" value="Liga" style="ellipse;whiteSpace=wrap;html=1;align=center;" vertex="1" parent="1">
          <mxGeometry x="-560" y="100" width="100" height="40" as="geometry" />
        </mxCell>
        <mxCell id="2kuMkGwONnxZ9jZL0DD0-5" value="&lt;u&gt;ClubeId&lt;/u&gt;" style="ellipse;whiteSpace=wrap;html=1;align=center;" vertex="1" parent="1">
          <mxGeometry x="-800" y="100" width="100" height="40" as="geometry" />
        </mxCell>
        <mxCell id="2kuMkGwONnxZ9jZL0DD0-6" value="Nome" style="ellipse;whiteSpace=wrap;html=1;align=center;" vertex="1" parent="1">
          <mxGeometry x="-800" y="30" width="100" height="40" as="geometry" />
        </mxCell>
        <mxCell id="2kuMkGwONnxZ9jZL0DD0-7" value="" style="endArrow=none;html=1;rounded=0;entryX=0;entryY=0.5;entryDx=0;entryDy=0;exitX=1;exitY=0.5;exitDx=0;exitDy=0;" edge="1" parent="1" source="2kuMkGwONnxZ9jZL0DD0-1" target="2kuMkGwONnxZ9jZL0DD0-4">
          <mxGeometry width="50" height="50" relative="1" as="geometry">
            <mxPoint x="-560" y="110" as="sourcePoint" />
            <mxPoint x="-520" y="70" as="targetPoint" />
          </mxGeometry>
        </mxCell>
        <mxCell id="2kuMkGwONnxZ9jZL0DD0-9" value="" style="endArrow=none;html=1;rounded=0;entryX=0.5;entryY=1;entryDx=0;entryDy=0;exitX=1;exitY=0.25;exitDx=0;exitDy=0;" edge="1" parent="1" source="2kuMkGwONnxZ9jZL0DD0-1" target="2kuMkGwONnxZ9jZL0DD0-3">
          <mxGeometry width="50" height="50" relative="1" as="geometry">
            <mxPoint x="-570" y="110" as="sourcePoint" />
            <mxPoint x="-520" y="60" as="targetPoint" />
          </mxGeometry>
        </mxCell>
        <mxCell id="2kuMkGwONnxZ9jZL0DD0-10" value="" style="endArrow=none;html=1;rounded=0;entryX=0.5;entryY=1;entryDx=0;entryDy=0;exitX=0.5;exitY=0;exitDx=0;exitDy=0;" edge="1" parent="1" source="2kuMkGwONnxZ9jZL0DD0-1" target="2kuMkGwONnxZ9jZL0DD0-2">
          <mxGeometry width="50" height="50" relative="1" as="geometry">
            <mxPoint x="-640" y="100" as="sourcePoint" />
            <mxPoint x="-590" y="50" as="targetPoint" />
          </mxGeometry>
        </mxCell>
        <mxCell id="2kuMkGwONnxZ9jZL0DD0-11" value="" style="endArrow=none;html=1;rounded=0;entryX=0.5;entryY=1;entryDx=0;entryDy=0;exitX=0;exitY=0.25;exitDx=0;exitDy=0;" edge="1" parent="1" source="2kuMkGwONnxZ9jZL0DD0-1" target="2kuMkGwONnxZ9jZL0DD0-6">
          <mxGeometry width="50" height="50" relative="1" as="geometry">
            <mxPoint x="-690" y="110" as="sourcePoint" />
            <mxPoint x="-640" y="60" as="targetPoint" />
          </mxGeometry>
        </mxCell>
        <mxCell id="2kuMkGwONnxZ9jZL0DD0-12" value="" style="endArrow=none;html=1;rounded=0;entryX=0;entryY=0.5;entryDx=0;entryDy=0;exitX=1;exitY=0.5;exitDx=0;exitDy=0;" edge="1" parent="1" source="2kuMkGwONnxZ9jZL0DD0-5" target="2kuMkGwONnxZ9jZL0DD0-1">
          <mxGeometry width="50" height="50" relative="1" as="geometry">
            <mxPoint x="-700" y="120" as="sourcePoint" />
            <mxPoint x="-650" y="70" as="targetPoint" />
          </mxGeometry>
        </mxCell>
        <mxCell id="2kuMkGwONnxZ9jZL0DD0-13" value="JOGADOR" style="rounded=0;whiteSpace=wrap;html=1;" vertex="1" parent="1">
          <mxGeometry x="-280" y="90" width="120" height="60" as="geometry" />
        </mxCell>
        <mxCell id="2kuMkGwONnxZ9jZL0DD0-14" value="Clube" style="ellipse;whiteSpace=wrap;html=1;align=center;" vertex="1" parent="1">
          <mxGeometry x="-270" y="40" width="100" height="40" as="geometry" />
        </mxCell>
        <mxCell id="2kuMkGwONnxZ9jZL0DD0-15" value="Idade" style="ellipse;whiteSpace=wrap;html=1;align=center;" vertex="1" parent="1">
          <mxGeometry x="-150" y="40" width="100" height="40" as="geometry" />
        </mxCell>
        <mxCell id="2kuMkGwONnxZ9jZL0DD0-16" value="País" style="ellipse;whiteSpace=wrap;html=1;align=center;" vertex="1" parent="1">
          <mxGeometry x="-150" y="100" width="100" height="40" as="geometry" />
        </mxCell>
        <mxCell id="2kuMkGwONnxZ9jZL0DD0-17" value="Nome" style="ellipse;whiteSpace=wrap;html=1;align=center;" vertex="1" parent="1">
          <mxGeometry x="-390" y="40" width="100" height="40" as="geometry" />
        </mxCell>
        <mxCell id="2kuMkGwONnxZ9jZL0DD0-18" value="Id" style="ellipse;whiteSpace=wrap;html=1;align=center;fontStyle=4;" vertex="1" parent="1">
          <mxGeometry x="-390" y="100" width="100" height="40" as="geometry" />
        </mxCell>
        <mxCell id="2kuMkGwONnxZ9jZL0DD0-19" value="" style="endArrow=none;html=1;rounded=0;entryX=0;entryY=0.5;entryDx=0;entryDy=0;exitX=1;exitY=0.5;exitDx=0;exitDy=0;" edge="1" parent="1" source="2kuMkGwONnxZ9jZL0DD0-13" target="2kuMkGwONnxZ9jZL0DD0-16">
          <mxGeometry width="50" height="50" relative="1" as="geometry">
            <mxPoint x="-140" y="100" as="sourcePoint" />
            <mxPoint x="-110" y="70" as="targetPoint" />
          </mxGeometry>
        </mxCell>
        <mxCell id="2kuMkGwONnxZ9jZL0DD0-20" value="" style="endArrow=none;html=1;rounded=0;entryX=0.5;entryY=1;entryDx=0;entryDy=0;exitX=1;exitY=0.25;exitDx=0;exitDy=0;" edge="1" parent="1" source="2kuMkGwONnxZ9jZL0DD0-13" target="2kuMkGwONnxZ9jZL0DD0-15">
          <mxGeometry width="50" height="50" relative="1" as="geometry">
            <mxPoint x="-150" y="90" as="sourcePoint" />
            <mxPoint x="-110" y="60" as="targetPoint" />
          </mxGeometry>
        </mxCell>
        <mxCell id="2kuMkGwONnxZ9jZL0DD0-21" value="" style="endArrow=none;html=1;rounded=0;entryX=0.5;entryY=1;entryDx=0;entryDy=0;exitX=0.5;exitY=0;exitDx=0;exitDy=0;" edge="1" parent="1" source="2kuMkGwONnxZ9jZL0DD0-13" target="2kuMkGwONnxZ9jZL0DD0-14">
          <mxGeometry width="50" height="50" relative="1" as="geometry">
            <mxPoint x="-200" y="80" as="sourcePoint" />
            <mxPoint x="-170" y="40" as="targetPoint" />
          </mxGeometry>
        </mxCell>
        <mxCell id="2kuMkGwONnxZ9jZL0DD0-22" value="" style="endArrow=none;html=1;rounded=0;entryX=0.5;entryY=1;entryDx=0;entryDy=0;exitX=0;exitY=0.25;exitDx=0;exitDy=0;" edge="1" parent="1" source="2kuMkGwONnxZ9jZL0DD0-13" target="2kuMkGwONnxZ9jZL0DD0-17">
          <mxGeometry width="50" height="50" relative="1" as="geometry">
            <mxPoint x="-280" y="110" as="sourcePoint" />
            <mxPoint x="-230" y="60" as="targetPoint" />
          </mxGeometry>
        </mxCell>
        <mxCell id="2kuMkGwONnxZ9jZL0DD0-23" value="" style="endArrow=none;html=1;rounded=0;entryX=0;entryY=0.5;entryDx=0;entryDy=0;" edge="1" parent="1" source="2kuMkGwONnxZ9jZL0DD0-18" target="2kuMkGwONnxZ9jZL0DD0-13">
          <mxGeometry width="50" height="50" relative="1" as="geometry">
            <mxPoint x="-290" y="120" as="sourcePoint" />
            <mxPoint x="-240" y="70" as="targetPoint" />
          </mxGeometry>
        </mxCell>
      </root>
    </mxGraphModel>
  </diagram>
</mxfile>
